<?xml version="1.0" encoding="utf-8"?>
<!-- Generator: Adobe Illustrator 23.0.6, SVG Export Plug-In . SVG Version: 6.00 Build 0)  -->
<svg version="1.1" id="Camada_1" xmlns="http://www.w3.org/2000/svg" xmlns:xlink="http://www.w3.org/1999/xlink" x="0px" y="0px"
	 viewBox="0 0 512 512" style="enable-background:new 0 0 512 512;" xml:space="preserve">
<style type="text/css">
	.st0{fill:#FFFFFF;}
</style>
<g id="Clown">
	<path class="st0" d="M334,337.4c-4.2-1.3-8.7,1.1-10,5.3c-11.7,37.6-51.6,58.5-89.2,46.8c-22.4-7-39.9-24.5-46.8-46.8
		c-1.3-4.2-5.8-6.6-10-5.3c-4.2,1.3-6.6,5.8-5.3,10c0,0,0,0,0,0.1c14.3,46,63.2,71.7,109.2,57.4c27.4-8.5,48.9-30,57.4-57.4
		C340.6,343.2,338.2,338.7,334,337.4z"/>
	<circle class="st0" cx="256" cy="316.2" r="41.4"/>
	<path class="st0" d="M423.6,293.7c2-4.7,3-9.8,3-14.9c-0.1-16.7-11-31.5-26.9-36.5c5.4-26.6-11.8-52.6-38.5-57.9
		c-14.1-2.8-28.7,0.6-40,9.5L263.3,65.6c-1.8-4-6.6-5.8-10.6-4c-1.8,0.8-3.2,2.2-4,4l-57.9,128.1c-21.4-16.7-52.3-12.9-69,8.6
		c-8.8,11.3-12.3,25.9-9.4,39.9c-16,5-26.8,19.8-26.9,36.5c0,5.1,1,10.2,3,14.9c-6.1,7.4-9.5,16.7-9.5,26.3v11.9
		c0,22.8,18.5,41.3,41.3,41.3h13.5c31.5,67.6,111.8,96.8,179.4,65.3c28.8-13.4,51.9-36.5,65.3-65.3h13.5c22.8,0,41.3-18.5,41.3-41.3
		V320C433.1,310.4,429.7,301,423.6,293.7z M226.8,196l62.7-33.5l15.2,33.5H226.8z M225.6,155.6l49-26.2l8.4,18.5l-71,38L225.6,155.6
		z M256,88.3l12,26.5l-31.6,16.9L256,88.3z M417.1,331.9c0,14-11.3,25.3-25.3,25.3h-7.3c4.2-13.3,6.4-27.1,6.4-41c0-4.4-3.6-8-8-8
		s-8,3.6-8,8c0,26.4-8.8,52.1-25,72.9h0.1C309.7,441,235,450.4,183,410.1c-7.9-6.1-14.9-13.2-21.1-21.1h0.1
		c-16.2-20.8-25-46.5-25-72.9c0-4.4-3.6-8-8-8c-4.4,0-8,3.6-8,8c0,13.9,2.2,27.8,6.4,41h-7.3c-14,0-25.3-11.3-25.3-25.3V320
		c0-14,11.3-25.3,25.3-25.3h12.3c3.7,0,6.9-2.5,7.8-6.1c7.8-32.5,28.9-60.3,58.2-76.5h115.1c29.2,16.2,50.3,44,58.2,76.5
		c0.9,3.6,4.1,6.1,7.8,6.1h12.3c14,0,25.3,11.3,25.3,25.3L417.1,331.9z"/>
	<circle class="st0" cx="310.9" cy="269.2" r="12.4"/>
	<circle class="st0" cx="201.1" cy="269.2" r="12.4"/>
</g>
</svg>
