<?xml version="1.0" encoding="utf-8"?>
<!-- Generator: Adobe Illustrator 23.0.6, SVG Export Plug-In . SVG Version: 6.00 Build 0)  -->
<svg version="1.1" id="Capa_1" xmlns="http://www.w3.org/2000/svg" xmlns:xlink="http://www.w3.org/1999/xlink" x="0px" y="0px"
	 viewBox="0 0 512 512" style="enable-background:new 0 0 512 512;" xml:space="preserve">
<style type="text/css">
	.st0{fill:#FFFFFF;}
</style>
<g>
	<g>
		<g>
			<path class="st0" d="M310.6,387.7c-6.9,0.2-12.1-7.5-9.2-13.8c3.3-8.2,15.2-8.2,18.5,0C322.7,380.2,317.5,387.9,310.6,387.7
				L310.6,387.7z"/>
		</g>
		<g>
			<path class="st0" d="M167.9,450.2c-2.6,0-5.1-1-7.1-2.9l-51.7-51.7c-3.9-3.9-3.9-10.2,0-14.1c3.9-3.9,10.2-3.9,14.1,0l51.7,51.7
				c3.9,3.9,3.9,10.2,0,14.1C173,449.2,170.4,450.2,167.9,450.2z"/>
		</g>
		<g>
			<path class="st0" d="M181,405.7c-2.6,0-5.1-1-7.1-2.9l-20.3-20.3c-3.9-3.9-3.9-10.2,0-14.1c3.9-3.9,10.2-3.9,14.1,0l20.3,20.3
				c3.9,3.9,3.9,10.2,0,14.1C186.1,404.7,183.5,405.7,181,405.7z"/>
		</g>
		<g>
			<path class="st0" d="M512,93.1c0-2.7-1.1-5.2-2.9-7.1l-38.8-38.8c-3.9-3.9-10.2-3.9-14.1,0l-14.3,14.3l-4.1-4.1
				c-3.9-3.9-10.2-3.9-14.1,0s-3.9,10.2,0,14.1l4.1,4.1l-7.6,7.6l-4.1-4.1c-3.9-3.9-10.2-3.9-14.1,0c-3.9,3.9-3.9,10.2,0,14.1
				l4.1,4.1l-80.7,80.7c-39.2-24.2-78.5-23.7-104.1,1.8c-7.3,7.2-12.7,14.4-16.6,21.8c-14.4,27.1-46.5,51.4-74.7,56.6
				c-21,3.9-40,13.4-54.9,27.5c-19.3,18.2-29.7,42-30.3,68.8c-0.7,35.9,16.7,74.7,47.8,106.6c31.4,32.1,70.1,50.7,106.2,50.9
				c0.2,0,0.4,0,0.6,0c26.6,0,50.5-9.9,69.2-28.5c15.3-15.3,25.5-35,29.6-57c0.5-3,1.3-6,2.3-9.1c1.7-5.3-1.2-10.9-6.5-12.6
				c-5.3-1.7-10.9,1.2-12.6,6.5c-1.2,3.9-2.2,7.8-2.9,11.6c-3.3,18-11.6,34.1-24.1,46.5c-14.8,14.8-33.9,22.7-55,22.7
				c-0.2,0-0.3,0-0.5,0c-30.8-0.2-64.3-16.5-92-44.8c-27.4-28-42.7-61.6-42.1-92.2c0.4-21.3,8.7-40.2,24-54.6
				c12.1-11.5,27.6-19.2,44.8-22.4c34.2-6.3,71.5-34.4,88.7-66.9c3-5.6,7.3-11.2,13.1-17c24.1-24.1,57-11.6,75.3-1.3l-81.9,81.9
				c-15.2-0.7-30.6,4.7-42.1,16.2c-10.5,10.5-16.3,24.5-16.3,39.4c0,14.9,5.8,28.9,16.3,39.4c10.5,10.5,24.5,16.3,39.4,16.3
				c14.9,0,28.9-5.8,39.4-16.3c11.5-11.5,17-26.9,16.2-42.1l81.8-81.8c10.2,18.5,22.3,51.7-3,77c-4.3,4.3-9.2,8-14.5,10.9
				c-2.7,1.5-5.4,3.1-8.1,4.9c-4.6,3-5.9,9.2-2.8,13.9c1.9,2.9,5.1,4.5,8.4,4.5c1.9,0,3.8-0.5,5.5-1.7c2.2-1.5,4.5-2.8,6.7-4
				c7-3.8,13.5-8.7,19.1-14.3c15-15,22.2-34.3,20.7-55.9c-1.1-16.2-7-33.3-17.2-49.9l80.7-80.7l5.9,5.9c2,2,4.5,2.9,7.1,2.9
				s5.1-1,7.1-2.9c3.9-3.9,3.9-10.2,0-14.1l-5.9-5.9l7.6-7.6l5.9,5.9c2,2,4.5,2.9,7.1,2.9s5.1-1,7.1-2.9c3.9-3.9,3.9-10.2,0-14.1
				l-5.9-5.9l14.3-14.3C510.9,98.3,512,95.8,512,93.1L512,93.1z M251.3,355.5c-6.8,6.8-15.7,10.5-25.3,10.5s-18.5-3.7-25.3-10.5
				c-13.9-13.9-13.9-36.6,0-50.5c7-7,16.1-10.4,25.3-10.4c9.2,0,18.3,3.5,25.3,10.4C265.2,318.9,265.2,341.6,251.3,355.5z
				 M275.8,305.2c-2.6-5.2-6-10-10.4-14.3c0,0,0,0,0,0c-4.3-4.3-9.1-7.8-14.3-10.4l147.2-147.2L423,158L275.8,305.2z M437.1,143.8
				l-24.7-24.7l7.6-7.6l24.7,24.7L437.1,143.8z M458.9,122.1l-24.7-24.7l7.6-7.6l24.7,24.7L458.9,122.1z M456,75.6l7.2-7.2
				l24.7,24.7l-7.2,7.2L456,75.6z"/>
		</g>
	</g>
	<path class="st0" d="M146.1,79.5c0-3.2-1.6-6.2-4.2-8.1c-2.6-1.9-6-2.4-9-1.3L54.5,96.6c-4.1,1.4-6.8,5.2-6.8,9.5v75.6
		c-4.2-1.9-8.9-3-13.9-3C15.2,178.7,0,193.9,0,212.6c0,18.7,15.2,33.9,33.9,33.9s33.9-15.2,33.9-33.9c0-0.6,0-99.3,0-99.3l58.4-19.8
		v61.6c-4.2-1.9-8.9-3-13.9-3c-18.7,0-33.9,15.2-33.9,33.9s15.2,33.9,33.9,33.9s33.9-15.2,33.9-33.9
		C146.1,185.4,146.1,79.5,146.1,79.5z M33.9,226.4c-7.6,0-13.9-6.2-13.9-13.9s6.2-13.9,13.9-13.9s13.9,6.2,13.9,13.9
		C47.7,220.2,41.5,226.4,33.9,226.4z M112.2,199.9c-7.6,0-13.9-6.2-13.9-13.9c0-7.6,6.2-13.9,13.9-13.9c7.6,0,13.9,6.2,13.9,13.9
		C126.1,193.7,119.9,199.9,112.2,199.9z"/>
	<path class="st0" d="M466.1,351.8l-33.8-11.4c-3.1-1-6.4-0.5-9,1.3s-4.2,4.9-4.2,8.1v75.6c-4.2-1.9-8.9-3-13.9-3
		c-18.7,0-33.9,15.2-33.9,33.9s15.2,33.9,33.9,33.9s33.9-15.2,33.9-33.9c0-0.6,0-2.4,0-2.7v-89.9l20.6,7c5.2,1.8,10.9-1,12.7-6.3
		C474.2,359.3,471.4,353.6,466.1,351.8L466.1,351.8z M405.3,470.2c-7.6,0-13.9-6.2-13.9-13.9c0-7.6,6.2-13.9,13.9-13.9
		c7.6,0,13.9,6.2,13.9,13.9C419.2,464,412.9,470.2,405.3,470.2z"/>
	<g>
		<g>
			<path class="st0" d="M273.4,107.6c-2,0-3.9-0.6-5.6-1.7c-7.1-4.8-42.7-29.5-50.9-42.3c-3.6-5.6-8.3-14.5-7.5-27
				c1.3-20.7,18.3-36.8,38.6-36.6c11.4,0.1,20.5,6.2,26.5,11.9c6.2-5.5,15.3-11.3,26.2-11.3c0.1,0,0.2,0,0.3,0
				c20.3,0.2,36.9,16.6,37.8,37.4c0.5,12.5-4.4,21.3-8.1,26.8c-8.6,12.8-44.6,36.6-51.8,41.2C277.1,107.1,275.3,107.6,273.4,107.6z
				 M247.5,20c-9.4,0-17.6,8-18.2,17.8c-0.3,5.2,0.9,9.5,4.4,14.9c4,6.2,24.1,21.7,39.9,32.8c15.9-10.7,36.3-25.8,40.5-31.9
				c3.5-5.3,4.9-9.6,4.7-14.8c-0.4-10-8.5-18.1-18-18.2c-8-0.1-16.6,9.5-18.4,12.1c-1.9,2.7-5,4.2-8.4,4.2c-3.3-0.1-6.4-1.8-8.1-4.6
				c-2.2-3.4-9.9-12.2-18-12.3C247.6,20,247.5,20,247.5,20z"/>
		</g>
	</g>
</g>
</svg>
