<?xml version="1.0" encoding="utf-8"?>
<!-- Generator: Adobe Illustrator 23.0.6, SVG Export Plug-In . SVG Version: 6.00 Build 0)  -->
<svg version="1.1" id="Capa_1" xmlns="http://www.w3.org/2000/svg" xmlns:xlink="http://www.w3.org/1999/xlink" x="0px" y="0px"
	 viewBox="0 0 512 512" style="enable-background:new 0 0 512 512;" xml:space="preserve">
<style type="text/css">
	.st0{fill:#FFFFFF;}
</style>
<g>
	<g>
		<path class="st0" d="M460,111.8c-4.2,0-7.6,3.4-7.6,7.6v19.7c0,4.2,3.4,7.6,7.6,7.6s7.6-3.4,7.6-7.6v-19.7
			C467.6,115.2,464.2,111.8,460,111.8z"/>
	</g>
</g>
<g>
	<g>
		<path class="st0" d="M460,165c-4.2,0-7.6,3.4-7.6,7.6v19.7c0,4.2,3.4,7.6,7.6,7.6s7.6-3.4,7.6-7.6v-19.7
			C467.6,168.4,464.2,165,460,165z"/>
	</g>
</g>
<g>
	<g>
		<path class="st0" d="M496.5,148.3h-19.7c-4.2,0-7.6,3.4-7.6,7.6s3.4,7.6,7.6,7.6h19.7c4.2,0,7.6-3.4,7.6-7.6
			S500.7,148.3,496.5,148.3z"/>
	</g>
</g>
<g>
	<g>
		<path class="st0" d="M443.3,148.3h-19.7c-4.2,0-7.6,3.4-7.6,7.6s3.4,7.6,7.6,7.6h19.7c4.2,0,7.6-3.4,7.6-7.6
			C450.9,151.7,447.5,148.3,443.3,148.3z"/>
	</g>
</g>
<g>
	<g>
		<path class="st0" d="M52.5,1.8c-4.2,0-7.6,3.4-7.6,7.6v19.7c0,4.2,3.4,7.6,7.6,7.6s7.6-3.4,7.6-7.6V9.4
			C60.1,5.2,56.7,1.8,52.5,1.8z"/>
	</g>
</g>
<g>
	<g>
		<path class="st0" d="M52.5,55c-4.2,0-7.6,3.4-7.6,7.6v19.7c0,4.2,3.4,7.6,7.6,7.6s7.6-3.4,7.6-7.6V62.6C60.1,58.4,56.7,55,52.5,55
			z"/>
	</g>
</g>
<g>
	<g>
		<path class="st0" d="M89,38.3H69.2c-4.2,0-7.6,3.4-7.6,7.6s3.4,7.6,7.6,7.6H89c4.2,0,7.6-3.4,7.6-7.6C96.6,41.7,93.2,38.3,89,38.3
			z"/>
	</g>
</g>
<g>
	<g>
		<path class="st0" d="M35.8,38.3H16.1c-4.2,0-7.6,3.4-7.6,7.6s3.4,7.6,7.6,7.6h19.7c4.2,0,7.6-3.4,7.6-7.6
			C43.4,41.7,40,38.3,35.8,38.3z"/>
	</g>
</g>
<g>
	<g>
		<path class="st0" d="M267.8,151.5c-24.2-1.4-49.6-1.6-74-0.5c-4.2,0.2-7.4,3.7-7.2,7.9c0.2,4.2,3.8,7.4,7.9,7.2
			c23.8-1.1,48.7-0.9,72.4,0.4c0.2,0,0.3,0,0.5,0c4,0,7.3-3.1,7.6-7.1C275.2,155.4,272,151.8,267.8,151.5z"/>
	</g>
</g>
<g>
	<g>
		<path class="st0" d="M374.1,167.9c-4-1.1-8.2,1.2-9.4,5.3c-1.1,4,1.2,8.2,5.3,9.4c41.8,11.6,67.8,28.4,67.8,43.7
			c0,14.2-22,29.6-58.8,41.1c-40.6,12.7-94.8,19.7-152.5,19.7s-111.9-7-152.5-19.7c-36.8-11.5-58.8-26.8-58.8-41.1
			c0-11.7,15.1-21.9,24.1-26.9c17.1-9.5,42-17.6,71.9-23.5c4.1-0.8,6.8-4.8,6-8.9s-4.8-6.8-8.9-6C39.5,174.6,0,198.4,0,226.3
			c0,15.5,12,37.7,69.4,55.6c42.1,13.1,97.8,20.4,157.1,20.4s115-7.2,157.1-20.4c57.4-17.9,69.4-40.1,69.4-55.6
			C453,202.8,425,182.1,374.1,167.9z"/>
	</g>
</g>
<g>
	<g>
		<path class="st0" d="M348.7,213l-0.2-0.1c-4.1-1-8.2,1.6-9.1,5.6c-0.6,2.6,0.2,5.2,1.9,7C308.4,233,267.9,237,226.5,237
			c-41.4,0-81.9-4-114.7-11.4c1.7-1.8,2.5-4.4,1.9-7c-1-4.1-5-6.6-9.1-5.7l-0.3,0.1c-6.3,1.5-10.5,6.8-10.5,13.2s4.2,11.8,10.5,13.2
			l0.3,0.1c34.5,8.1,77.8,12.6,121.9,12.6c44.1,0,87.4-4.5,121.9-12.6l0.2-0.1c6.3-1.5,10.5-6.8,10.5-13.2
			C359.2,219.9,354.9,214.5,348.7,213z"/>
	</g>
</g>
<g>
	<g>
		<path class="st0" d="M358.8,292.9c-4.2,0-7.6,3.4-7.6,7.6v162.4c0,13.7-48.6,33.7-124.7,33.7s-124.7-20-124.7-33.7v-31.5
			c0-4.2-3.4-7.6-7.6-7.6s-7.6,3.4-7.6,7.6v31.5c0,14.8,15.2,27.5,44.1,36.5c25.7,8,59.7,12.4,95.8,12.4s70.1-4.4,95.8-12.4
			c28.8-9,44.1-21.6,44.1-36.5V300.5C366.4,296.3,363,292.9,358.8,292.9z"/>
	</g>
</g>
<g>
	<g>
		<path class="st0" d="M94.2,292.9c-4.2,0-7.6,3.4-7.6,7.6V406c0,4.2,3.4,7.6,7.6,7.6s7.6-3.4,7.6-7.6V300.5
			C101.8,296.3,98.4,292.9,94.2,292.9z"/>
	</g>
</g>
<g>
	<g>
		<path class="st0" d="M510.6,51l-17.4-24.9c-2.4-3.4-7.1-4.3-10.6-1.9L251,185.8c-1.7,1.2-2.8,2.9-3.1,4.9c-0.4,2,0.1,4,1.2,5.7
			l17.4,24.9c1.5,2.1,3.8,3.3,6.2,3.3c1.5,0,3-0.4,4.3-1.4L508.8,61.6c1.7-1.2,2.8-2.9,3.1-4.9C512.2,54.7,511.8,52.7,510.6,51z
			 M274.6,206.4l-8.7-12.5L485.1,41l8.7,12.5L274.6,206.4z"/>
	</g>
</g>
<g>
	<g>
		<path class="st0" d="M351.1,56.5l-16-3.2c-12.8-2.6-22.7-12.5-25.3-25.3l-3.2-16c-1.4-6.9-7.3-11.7-14.4-11.7s-13,4.8-14.4,11.7
			l-3.2,16C272,40.8,262,50.7,249.2,53.3l-16,3.2c-6.9,1.4-11.7,7.3-11.7,14.4c0,7.1,4.8,13,11.7,14.4l16,3.2
			c12.8,2.6,22.7,12.5,25.3,25.3l3.2,16c1.4,6.9,7.3,11.7,14.4,11.7c7.1,0,13-4.8,14.4-11.7l3.2-16c2.6-12.8,12.5-22.7,25.3-25.3
			l16-3.2c6.9-1.4,11.7-7.3,11.7-14.4S358,57.9,351.1,56.5z M332.1,73.6c-18.8,3.8-33.4,18.4-37.2,37.2l-2.7,13.4l-2.7-13.4
			C285.6,92,271,77.4,252.2,73.6l-13.4-2.7l13.4-2.7c18.8-3.8,33.4-18.4,37.2-37.2l2.7-13.4l2.7,13.4c3.8,18.8,18.4,33.4,37.2,37.2
			l13.4,2.7L332.1,73.6z"/>
	</g>
</g>
<g>
	<g>
		<path class="st0" d="M219.3,105l-19.4-3.9c-16.1-3.3-28.7-15.8-31.9-31.9l-3.9-19.4c-1.5-7.6-8.1-12.9-15.8-12.9
			c-7.8,0-14.3,5.3-15.8,12.9l-3.9,19.4c-3.3,16.1-15.8,28.7-31.9,31.9L77.2,105c-7.6,1.5-12.9,8.1-12.9,15.8s5.3,14.3,12.9,15.8
			l19.4,3.9c16.1,3.3,28.7,15.8,31.9,31.9l3.9,19.4c1.5,7.6,8.1,12.9,15.8,12.9c7.8,0,14.3-5.3,15.8-12.9l3.9-19.4
			c3.3-16.1,15.8-28.7,31.9-31.9l19.4-3.9c7.6-1.5,12.9-8.1,12.9-15.8S226.9,106.6,219.3,105z M216.3,121.8l-19.4,3.9
			c-22.1,4.5-39.3,21.7-43.8,43.8l-3.9,19.4c-0.1,0.4-0.2,0.8-0.9,0.8c-0.8,0-0.9-0.4-0.9-0.8l-3.9-19.4
			c-4.5-22.1-21.7-39.3-43.8-43.8l-19.4-3.9c-0.4-0.1-0.8-0.2-0.8-0.9s0.4-0.9,0.8-0.9l19.4-3.9c22.1-4.5,39.3-21.7,43.8-43.8
			l3.9-19.4c0.1-0.4,0.2-0.8,0.9-0.8c0.8,0,0.9,0.4,0.9,0.8l3.9,19.4c4.5,22.1,21.7,39.3,43.8,43.8l19.4,3.9
			c0.4,0.1,0.8,0.2,0.8,0.9S216.6,121.7,216.3,121.8z"/>
	</g>
</g>
</svg>
