<?xml version="1.0" encoding="utf-8"?>
<!-- Generator: Adobe Illustrator 23.0.6, SVG Export Plug-In . SVG Version: 6.00 Build 0)  -->
<svg version="1.1" xmlns="http://www.w3.org/2000/svg" xmlns:xlink="http://www.w3.org/1999/xlink" x="0px" y="0px"
	 viewBox="0 0 150 40" style="enable-background:new 0 0 150 40;" xml:space="preserve">
<style type="text/css">
	.st0{display:none;}
	.st1{display:inline;fill:#F20000;}
	.st2{fill:#20115F;}
	.st3{display:inline;fill:#1A1A1A;}
	.st4{display:inline;fill:#FFFFFF;}
	.st5{fill:#B3B2B0;}
	.st6{fill:#FFFFFF;}
	.st7{font-family:'Gotham-Book';}
	.st8{font-size:23.3046px;}
</style>
<g id="Camada_2" class="st0">
	<rect class="st1" width="150" height="40"/>
</g>
<g id="Camada_1">
	<g id="Objects">
		<g id="Camada_3">
			<rect x="50.2" y="9.3" class="st2" width="48.9" height="20.8"/>
		</g>
		<g id="XMLID_36712_" class="st0">
			<path id="XMLID_36715_" class="st3" d="M121.2,26.1c-0.1-0.3-2.2-1-2.5-1.1c-0.9-0.3-1.7-0.6-2.6-0.9c-1.2-0.4-2.3-0.7-3.5-0.9
				c-4-0.9-8.1-1.2-12.2-1.2c-3.3,0-12.9,0.6-17.1,2.8l0,0c-3.1,1.5-5.4,2.1-7.5,2.1s-4.4-0.6-7.5-2.1l0,0
				c-4.2-2.2-13.8-2.8-17.1-2.8c-4.1,0-8.2,0.3-12.2,1.2c-1.2,0.3-2.3,0.6-3.5,0.9c-0.9,0.3-1.8,0.6-2.6,0.9
				c-0.3,0.1-2.5,0.8-2.5,1.1c-0.2,0.8-0.1,1.7-0.1,2.8c0-0.1,1.5,0.3,1.7,0.4c0.5,0.3,0.9,0.6,1.2,1.1c0.8,1.2,0.6,2.7,0.8,4
				c0.2,1.5,0.2,2.9,0.5,4.4c0.6,2.7,1.8,5.5,3.6,7.7c1.7,2.1,4.8,2.8,7.2,3.5c3.2,0.9,6.5,0.7,9.8,0.3c3.3-0.4,6.7-1.2,9.4-3.2
				c2.4-1.8,4-4.4,5.3-7c0.5-1,0.9-2,1.2-3c0,0,0,0,0,0c0.1-0.2,0.2-0.5,0.2-0.7c0.3-1,0.8-1.9,1.6-2.8c0.8-0.9,2-1.4,3.1-1.4
				s2.3,0.5,3.1,1.4c0.7,0.8,1.2,1.8,1.6,2.8c0.1,0.2,0.1,0.5,0.2,0.7v0c0.3,1,0.8,2.1,1.2,3c1.3,2.6,2.9,5.2,5.3,7
				c2.7,2,6.1,2.8,9.4,3.2c3.3,0.4,6.6,0.5,9.8-0.3c2.5-0.7,5.5-1.4,7.2-3.5c1.8-2.2,3-5,3.6-7.7c0.3-1.5,0.3-2.9,0.5-4.4
				c0.2-1.3,0-2.9,0.8-4c0.3-0.5,0.7-0.8,1.2-1.1c0.1-0.1,1.7-0.5,1.7-0.4C121.3,27.8,121.3,26.9,121.2,26.1z M32.8,27.6
				c-0.8,0-1.4-0.2-1.4-0.4s0.6-0.4,1.4-0.4s1.4,0.2,1.4,0.4C34.2,27.5,33.6,27.6,32.8,27.6z M67.8,34.2c-0.8,5.2-3.4,10.9-8.9,12.4
				c-3,0.8-11.2,1.4-16.3-0.8c-5.1-2.2-5.4-11.1-5.6-14.1c-0.1-3,2.2-7,14.9-7c2.4,0,4.8,0.1,7.2,0.6c2.3,0.5,4.7,1.1,6.6,2.5
				c0.6,0.5,1.2,1,1.6,1.5c0.3,0.5,0.6,1.1,0.7,1.8C68.1,32.2,67.9,33.2,67.8,34.2z M114.4,31.8c-0.1,3-0.5,11.9-5.6,14.1
				c-5.1,2.2-13.3,1.6-16.3,0.8c-5.5-1.5-8.1-7.2-8.9-12.4c-0.2-1-0.3-2-0.2-3c0.1-0.7,0.3-1.3,0.7-1.8c0.4-0.6,0.9-1,1.6-1.5
				c1.9-1.5,4.3-2.1,6.6-2.5c2.4-0.5,4.8-0.6,7.2-0.6C112.2,24.7,114.5,28.7,114.4,31.8z M118.6,27.6c-0.8,0-1.4-0.2-1.4-0.4
				s0.6-0.4,1.4-0.4s1.4,0.2,1.4,0.4C120,27.5,119.4,27.6,118.6,27.6z"/>
			<path id="XMLID_36714_" class="st4" d="M118.6,26.8c-0.8,0-1.4,0.2-1.4,0.4c0,0.2,0.6,0.4,1.4,0.4s1.4-0.2,1.4-0.4
				C120,27,119.4,26.8,118.6,26.8z"/>
			<ellipse id="XMLID_36713_" class="st4" cx="32.8" cy="27.2" rx="1.4" ry="0.4"/>
		</g>
		<g id="XMLID_1_">
			<path id="XMLID_6_" class="st5" d="M25.2,31.2C25.2,31.2,25.2,31.2,25.2,31.2H25C25.1,31.2,25.1,31.2,25.2,31.2z"/>
			<path id="XMLID_5_" class="st2" d="M9.2,25.5h30.7v0c0.2-6.2,0.8-12.4,1.6-18.5c0.2-1.3-0.5-2.5-1.7-3C35,1.9,14.1,1.9,9.2,4
				c-1.2,0.5-1.9,1.8-1.7,3C8.4,13.2,9,19.3,9.2,25.5L9.2,25.5L9.2,25.5L9.2,25.5z"/>
			<path id="XMLID_4_" class="st5" d="M24,31.2c0,0,0.1,0,0.2,0H24C23.9,31.2,23.9,31.2,24,31.2z"/>
			<path id="XMLID_3_" class="st6" d="M13.5,30.7c3.5,0.4,7,0.5,10.4,0.5h0.2c0.2,0,0.4,0,0.4,0s0.2,0,0.4,0h0.2
				c3.4,0,7-0.1,10.4-0.5c1.3-0.1,2.8-0.3,4.2-0.6l0.1-4.6v0H9.2v0v0l0.1,4.6C10.7,30.5,12.2,30.6,13.5,30.7z"/>
			<path id="XMLID_2_" class="st2" d="M46.8,25.1c-1.1,0.3-1.3,1.7-1.9,2.5c-1.3,1.5-3.1,2.2-5,2.6c-1.4,0.3-2.9,0.4-4.2,0.6
				c-3.5,0.4-7,0.5-10.4,0.5c0,0,0,0-0.1,0c0,0-0.1,0-0.2,0c-0.2,0-0.4,0-0.4,0s-0.2,0-0.4,0c-0.1,0-0.1,0-0.2,0c0,0,0,0-0.1,0
				c-3.4,0-7-0.1-10.4-0.5c-1.3-0.1-2.8-0.3-4.2-0.6c-1.9-0.4-3.8-1.1-5-2.6c-0.6-0.7-0.8-2.2-1.9-2.5c-1.6-0.5-2.1,1.7-2,2.7
				c0.1,2.1,1.8,4,3.4,5.1c2,1.5,4.5,2.3,6.9,2.9c4.4,1.1,8.9,1.3,13.4,1.3c0.2,0,0.6,0,0.6,0s0.4,0,0.6,0c4.5,0,9-0.3,13.4-1.3
				c2.4-0.6,4.9-1.4,6.9-2.9c1.6-1.1,3.3-3,3.4-5.1C48.8,26.8,48.4,24.6,46.8,25.1z"/>
		</g>
		<text transform="matrix(0.9945 0 0 1 50.1992 27.6895)" class="st6 st7 st8">JOBART</text>
	</g>
</g>
</svg>
