<?xml version="1.0" encoding="utf-8"?>
<!-- Generator: Adobe Illustrator 23.0.6, SVG Export Plug-In . SVG Version: 6.00 Build 0)  -->
<svg version="1.1" id="OBJECTS" xmlns="http://www.w3.org/2000/svg" xmlns:xlink="http://www.w3.org/1999/xlink" x="0px" y="0px"
	 viewBox="0 0 500 500" style="enable-background:new 0 0 500 500;" xml:space="preserve">
<style type="text/css">
	.st0{opacity:0.44;fill:#B2B2B2;enable-background:new    ;}
	.st1{fill:#D32D2D;}
	.st2{fill:none;stroke:#FFD283;stroke-width:0.9641;stroke-linecap:round;stroke-miterlimit:10;}
	.st3{fill:#FFFFFF;}
	.st4{fill:#B50000;}
	.st5{fill:#73C1B8;}
	.st6{fill:#FFEBD9;}
	.st7{fill:url(#SVGID_1_);}
	.st8{fill:#2B177F;}
	.st9{fill:#FFCDB7;}
	.st10{fill:#2A22DD;}
	.st11{fill:#1C0B47;}
	.st12{fill:#0D0526;}
	.st13{fill:#4A2210;}
	.st14{fill:url(#SVGID_2_);}
	.st15{fill:url(#SVGID_3_);}
	.st16{fill:#FFA889;}
	.st17{fill:#C8675F;}
	.st18{opacity:0.5;fill:#FFFFFF;enable-background:new    ;}
	.st19{fill:url(#SVGID_4_);}
	.st20{fill:url(#SVGID_5_);}
	.st21{fill:#EFEFEF;}
	.st22{fill:url(#SVGID_6_);}
	.st23{fill:url(#SVGID_7_);}
	.st24{fill:url(#SVGID_8_);}
	.st25{fill:url(#SVGID_9_);}
	.st26{fill:url(#SVGID_10_);}
	.st27{fill:#11073A;}
	.st28{opacity:0.29;fill:#4A2210;enable-background:new    ;}
	.st29{fill:url(#SVGID_11_);}
	.st30{opacity:0.15;fill:#4A2210;enable-background:new    ;}
	.st31{fill:url(#SVGID_12_);}
	.st32{fill:url(#SVGID_13_);}
	.st33{fill:url(#SVGID_14_);}
	.st34{fill:url(#SVGID_15_);}
	.st35{fill:url(#SVGID_16_);}
	.st36{opacity:0.46;fill:#C3C4C2;enable-background:new    ;}
	.st37{opacity:0.85;}
	.st38{fill:#AFAFAF;}
	.st39{fill:url(#SVGID_17_);}
	.st40{fill:#331F22;}
	.st41{fill:url(#SVGID_18_);}
	.st42{fill:#FFCCC3;}
	.st43{opacity:0.24;fill:#C3C4C2;enable-background:new    ;}
	.st44{fill:#878787;}
	.st45{fill:url(#SVGID_19_);}
	.st46{fill:url(#SVGID_20_);}
</style>
<g>
	<g>
		<ellipse class="st0" cx="270.18" cy="455.22" rx="73.15" ry="14.29"/>
		<path class="st1" d="M331.27,437.73l4.88,13.54c0,0-12.57,14.03-66.53,14.03s-64.37-15.1-64.37-15.1l2.9-12.46h123.12V437.73z"/>
		<path class="st2" d="M330.97,442.56c0,0-4.88,12.63-22.9,12.79c-11,0.1-16.22-3.37-18.63-6.09c-1.21-1.37-3.27-1.58-4.65-0.37
			c-4.22,3.67-13.42,9.54-28.41,8.49c-13.3-0.94-19.16-6.04-21.7-9.81c-1.03-1.53-3.22-1.55-4.44-0.17
			c-2.31,2.61-6.33,5.32-12.58,4.09c-11.11-2.19-9.43-11.45-9.43-11.45"/>
		<g>
			<g>
				<g>
					<path class="st3" d="M306.22,446.75c0.62,0,0.62-0.96,0-0.96S305.6,446.75,306.22,446.75L306.22,446.75z"/>
				</g>
			</g>
			<g>
				<g>
					<path class="st3" d="M288.71,459.88c0.62,0,0.62-0.96,0-0.96S288.09,459.88,288.71,459.88L288.71,459.88z"/>
				</g>
			</g>
			<g>
				<g>
					<path class="st3" d="M260.93,447.93c0.62,0,0.62-0.96,0-0.96C260.31,446.96,260.31,447.93,260.93,447.93L260.93,447.93z"/>
				</g>
			</g>
			<g>
				<g>
					<path class="st3" d="M232.31,456.85c0.62,0,0.62-0.96,0-0.96S231.69,456.85,232.31,456.85L232.31,456.85z"/>
				</g>
			</g>
			<g>
				<g>
					<path class="st3" d="M218.67,443.05c0.62,0,0.62-0.96,0-0.96C218.05,442.08,218.05,443.05,218.67,443.05L218.67,443.05z"/>
				</g>
			</g>
		</g>
		<ellipse class="st4" cx="269.71" cy="437.73" rx="61.56" ry="7.35"/>
	</g>
	<g>
		<path class="st5" d="M317.67,55.24c0,0,89.41,57.66,106.51,150.37c19.84,107.57-82.85,211.64-123.72,190.33
			c-22.03-11.49,39.39-33.96,28.79-56.09c-11.45-23.9-40.24,42.01-96.89,47.7c-56.66,5.68-80.13-6.82-135.49-65.53
			C50.21,272.53-4.18,93.86,194.61,45.87c101.09-22.81,79.21,46.06,6.21,48.97S66.26,150.68,77.14,219.24s36.2,30.84,28.15-8.79
			s19.14-102.11,85.46-101.13s124.88-11.31,106.97-37.65C287.79,57.06,297.86,40.08,317.67,55.24z"/>
		<polygon class="st5" points="76.26,23.83 75.47,52.74 47.66,60.73 76.58,61.52 84.57,89.33 85.36,60.41 113.17,52.42 84.25,51.63 
					"/>
		<polygon class="st5" points="129.56,13.65 134.31,28.68 121.41,37.75 136.45,33.01 145.51,45.9 140.77,30.87 153.67,21.8 
			138.63,26.54 		"/>
		<polygon class="st5" points="450.12,247.95 456.21,267.22 439.67,278.85 458.95,272.77 470.57,289.3 464.49,270.03 481.03,258.4 
			461.75,264.48 		"/>
		<polygon class="st5" points="55.87,97.9 62.19,106.02 56.36,114.5 64.48,108.18 72.95,114.01 66.64,105.89 72.47,97.41 
			64.35,103.73 		"/>
		<polygon class="st5" points="431.13,317.79 437.45,325.91 431.62,334.39 439.74,328.07 448.22,333.9 441.9,325.78 447.73,317.3 
			439.61,323.62 		"/>
		<polygon class="st5" points="174.01,29.9 178.29,35.4 174.34,41.15 179.84,36.87 185.59,40.82 181.31,35.31 185.26,29.57 
			179.75,33.85 		"/>
		<polygon class="st6" points="158.75,63.01 163.04,68.51 159.08,74.26 164.59,69.98 170.33,73.93 166.05,68.43 170,62.68 
			164.5,66.96 		"/>
		<polygon class="st6" points="197.52,71.99 201.8,77.5 197.85,83.24 203.36,78.96 209.1,82.91 204.82,77.41 208.77,71.66 
			203.27,75.95 		"/>
		<polygon class="st6" points="124.53,152.18 128.82,157.69 124.86,163.43 130.37,159.15 136.11,163.1 131.83,157.6 135.78,151.85 
			130.28,156.13 		"/>
		<polygon class="st6" points="61.1,178.17 64.3,182.27 61.35,186.55 65.45,183.36 69.74,186.3 66.54,182.2 69.49,177.92 
			65.39,181.11 		"/>
		<polygon class="st6" points="191.73,115.33 196.01,120.84 192.06,126.58 197.57,122.3 203.31,126.25 199.03,120.75 202.98,115 
			197.48,119.28 		"/>
		<polygon class="st6" points="376.88,308.5 381.16,314 377.21,319.75 382.71,315.46 388.46,319.42 384.17,313.91 388.13,308.17 
			382.62,312.45 		"/>
		<polygon class="st6" points="398.63,235.87 402.91,241.38 398.96,247.12 404.46,242.84 410.21,246.79 405.93,241.29 
			409.88,235.54 404.37,239.82 		"/>
		<polygon class="st6" points="333.31,316.04 339.72,317.89 339.89,324.57 341.75,318.15 348.42,317.98 342.01,316.13 
			341.84,309.45 339.99,315.87 		"/>
		<polygon class="st6" points="355.6,340.11 358.03,343.23 355.79,346.49 358.91,344.06 362.17,346.3 359.74,343.18 361.98,339.92 
			358.86,342.35 		"/>
		<polygon class="st6" points="362.74,265.94 368.12,278.71 357.58,287.7 370.35,282.32 379.34,292.86 373.96,280.09 384.5,271.1 
			371.73,276.48 		"/>
		<polygon class="st6" points="116.52,85.7 132.36,92.67 130.47,110.26 137.48,94.02 154.69,95.75 138.86,88.78 140.75,71.19 
			133.74,87.44 		"/>
		<polygon class="st5" points="435.48,221.25 439.76,226.75 435.81,232.5 441.32,228.22 447.06,232.17 442.78,226.66 446.73,220.92 
			441.23,225.2 		"/>
	</g>
	<g>
		<g>
			<g>
				
					<linearGradient id="SVGID_1_" gradientUnits="userSpaceOnUse" x1="-1002.5643" y1="110.2651" x2="-1005.9065" y2="118.8435" gradientTransform="matrix(-0.9546 0.2978 -0.2978 -0.9546 -704.2607 582.0144)">
					<stop  offset="0" style="stop-color:#FFCDB7"/>
					<stop  offset="1" style="stop-color:#FFB7A1"/>
				</linearGradient>
				<polygon class="st7" points="254.11,171.25 228.1,221.25 179.39,191.9 175.53,195.52 232.3,236.89 262.39,189.47 				"/>
				<path class="st8" d="M261.91,195.74l-29.36,41.07l-53.87-37.76l5.62-4.38l42.47,18.15l25.99-38.99
					C252.76,173.83,262.67,188.36,261.91,195.74z"/>
				<g>
					<polygon class="st9" points="319.63,183.88 368.01,231.56 314.41,255.29 314.62,250.01 355.35,230.59 316.43,190.71 					"/>
					<polygon class="st8" points="318.53,173.63 370.61,232.53 320.26,255.39 319.31,247.14 353.73,230.59 310.22,189.03 					"/>
					<polygon class="st10" points="319.31,247.14 330.04,240.47 334.25,253.6 320.26,255.39 					"/>
				</g>
				<path class="st11" d="M311.75,266.05l6.8,48.66c0,0,2.28,11.17-18.28,11.68c-20.56,0.51-31.48-9.39-31.48-9.39l-11.91-53.16
					l8.36-27.06l30.72-16.25l10.92,27.67L311.75,266.05z"/>
				<g>
					<polygon class="st12" points="285.71,259.47 265.58,335.39 268.46,436.05 264.43,436.62 258.1,333.66 274.78,260.62 					"/>
					<path class="st12" d="M265.01,435.17c0.04-0.01-6.58,3.61-8.17,3.78c-1.08,0.11-2.09-0.35-2.18-1.72c0,0-1.09,2.71,1.62,2.9
						c1.45,0.1,9.65-1.96,12.81-1.28c0,0-0.22-1.44-0.79-2.99L265.01,435.17z"/>
				</g>
				<g>
					<polygon class="st12" points="304.12,259.47 283.99,335.39 286.86,436.05 282.84,436.62 276.51,334.81 293.19,260.62 					"/>
					<path class="st12" d="M283.41,435.17c0.04-0.01-6.58,3.61-8.17,3.78c-1.08,0.11-2.09-0.35-2.18-1.72c0,0-1.09,2.71,1.62,2.9
						c1.45,0.1,9.65-1.96,12.81-1.28c0,0-0.22-1.44-0.79-2.99L283.41,435.17z"/>
				</g>
				<path class="st13" d="M319.07,88.86c0,0,6.97-11.47-12.08-20.86s-54.94,2.03-54.74,23.77c0.17,18.46,9.71,32.31,29.86,28.33
					C302.26,116.13,319.07,88.86,319.07,88.86z"/>
				
					<linearGradient id="SVGID_2_" gradientUnits="userSpaceOnUse" x1="-1164.0989" y1="497.365" x2="-1164.0989" y2="510.9478" gradientTransform="matrix(-0.9718 -0.2357 0.2357 -0.9718 -961.7211 393.2574)">
					<stop  offset="0" style="stop-color:#FFCDB7"/>
					<stop  offset="1" style="stop-color:#E49E8F"/>
				</linearGradient>
				<path class="st14" d="M284.89,155.85l-5.6,36.14c0,0,7.7,6.03,13.98,1.78l1.34-41.66L284.89,155.85z"/>
				
					<linearGradient id="SVGID_3_" gradientUnits="userSpaceOnUse" x1="-1176.4824" y1="377.7695" x2="-1109.5217" y2="377.7695" gradientTransform="matrix(-1 0 0 -1 -862.9492 502)">
					<stop  offset="0" style="stop-color:#FFCDB7"/>
					<stop  offset="1" style="stop-color:#FFB7A1"/>
				</linearGradient>
				<path class="st15" d="M246.6,111.76c0.67,16.82,3.21,28.47,5.95,36.35c3.09,8.87,11.55,14.73,20.94,14.73h18.1
					c13.79,0,19.54-29.23,21.77-47.01c1.05-8.4-2.73-16.65-9.77-21.35c-4.79-3.2-10.31-6.51-14.77-8.13
					c-10.14-3.69-17.97,7.83-17.97,7.83s-5.99-6.91-11.98-7.37c-2.26-0.17-4.59,2.09-6.62,4.97
					C248.18,97.59,246.32,104.66,246.6,111.76z"/>
				<g>
					<g>
						<path class="st16" d="M281.7,120.78c0.49,2.04,2.55,3.3,4.59,2.81c2.04-0.49,3.3-2.55,2.81-4.59
							c-0.49-2.04-2.55-3.3-4.59-2.81C282.46,116.68,281.21,118.74,281.7,120.78z"/>
						<path class="st3" d="M282.11,120.11c0.42,1.74,2.17,2.82,3.92,2.4c1.74-0.42,2.82-2.17,2.4-3.92
							c-0.42-1.74-2.17-2.82-3.92-2.4C282.77,116.61,281.69,118.36,282.11,120.11z"/>
						<path class="st13" d="M283.4,119.8c0.25,1.03,1.29,1.67,2.32,1.42s1.67-1.29,1.42-2.32s-1.29-1.67-2.32-1.42
							C283.79,117.72,283.15,118.76,283.4,119.8z"/>
						<path class="st3" d="M284.03,118.81c0.07,0.29,0.36,0.47,0.65,0.4s0.47-0.36,0.4-0.65s-0.36-0.47-0.65-0.4
							C284.13,118.23,283.96,118.52,284.03,118.81z"/>
					</g>
					<path class="st13" d="M292.05,113.56c-0.46,1.23-1.91,1.71-3.04,1.06c-0.88-0.5-1.95-0.97-3.06-1.08
						c-2.66-0.27-6.11,3.81-8.32,2.83c-2.21-0.97-4.34-7.7-2.12-9.38s6.02-2.83,10.53-2.04c3.03,0.54,5.15,3.07,6.21,4.67
						c0.52,0.79,0.62,1.78,0.29,2.67L292.05,113.56z"/>
				</g>
				<g>
					<g>
						<path class="st16" d="M255.86,120.78c0.49,2.04,2.55,3.3,4.59,2.81c2.04-0.49,3.3-2.55,2.81-4.59
							c-0.49-2.04-2.55-3.3-4.59-2.81C256.63,116.68,255.37,118.74,255.86,120.78z"/>
						<path class="st3" d="M256.27,120.11c0.42,1.74,2.17,2.82,3.92,2.4c1.74-0.42,2.82-2.17,2.4-3.92
							c-0.42-1.74-2.17-2.82-3.92-2.4S255.85,118.36,256.27,120.11z"/>
						<path class="st13" d="M257.56,119.8c0.25,1.03,1.29,1.67,2.32,1.42s1.67-1.29,1.42-2.32s-1.29-1.67-2.32-1.42
							C257.95,117.72,257.31,118.76,257.56,119.8z"/>
						<path class="st3" d="M258.19,118.81c0.07,0.29,0.36,0.47,0.65,0.4s0.47-0.36,0.4-0.65s-0.36-0.47-0.65-0.4
							C258.3,118.23,258.12,118.52,258.19,118.81z"/>
					</g>
					<path class="st13" d="M250.17,112c0.65,1.71,2.62,2.62,4.27,1.84c0.7-0.33,1.48-0.59,2.28-0.67c2.66-0.27,6.11,3.81,8.32,2.83
						c2.21-0.97,4.34-7.7,2.12-9.38c-2.21-1.68-6.02-2.83-10.53-2.04c-2.99,0.53-5.08,2.99-6.16,4.6
						C249.91,110.02,249.81,111.07,250.17,112L250.17,112z"/>
				</g>
				<path class="st13" d="M282.86,132.34c0,0-10.21,3.32-16.61,1.23c0,0,1.6,11.44,10.83,12.55
					C286.3,147.23,282.86,132.34,282.86,132.34z"/>
				<path class="st17" d="M281.58,143.1c0.21-0.35,0.1-0.8-0.24-1.03c-0.8-0.54-2.33-1.43-3.87-1.43c-1.47,0-3.27,0.82-4.31,1.36
					c-0.48,0.25-0.55,0.89-0.16,1.26c0.79,0.75,2.25,1.82,4.35,2.05C279.72,145.58,281.03,144.02,281.58,143.1z"/>
				<g>
					<g>
						<path class="st9" d="M307.1,130.04c0,0,10.33-5.49,13.4,2.12c3.32,8.23-11.13,7.7-14.26,1.43L307.1,130.04z"/>
					</g>
					<path class="st16" d="M308.62,132.51c0.21-0.58,4.44-1.91,7.58-0.27c3.14,1.64-6.71,0.52-7.21,3.24
						C308.99,135.47,308.02,134.18,308.62,132.51z"/>
				</g>
				<path class="st13" d="M317.73,123.2c-4.1,3.65-7.2,8.21-9.41,13.23c-0.57,1.3-1.21,2.24-1.88,2.24c-2.15,0-6.98-3.76-6.44-5.1
					c0.54-1.34,4.29,0.81,6.98-8.05s-9.39-29.79-9.39-35.69s18.5-7.84,29.24,4.77C333.91,102.92,325.42,116.35,317.73,123.2z"/>
				<path class="st18" d="M325.64,100.62c0.77,2.38,0.61,6.98-0.52,9.21c0.57-2.82-0.59-5.89-1.61-7.02
					c0.57,2.45,0.82,4.49,0.09,7.57c-0.42-3.64-0.9-5.51-2.35-7.59c0.76,3.81,0.55,6.1-0.96,9.81c0.47-2.47,0.78-3.99,0.47-6.07
					c-0.28-1.92-0.65-3.74-2.06-4.48c1,4.3,0.92,10.16-0.84,13.52c1.04-6.41-0.41-10.39-2.01-12.15c0.81,3.4,0.48,5.06,0.38,8.05
					c-0.03,0.78-0.56,4.38-1.27,4.68c0.48-2.06,0.46-3.94,0.44-5.42c-0.03-2.42-1.25-12.57-6.08-17.41c2.79,2.21,4.7,4.42,5.71,7.5
					c0.27-4.84-1.67-6.64-3.9-8.69c3.28,2.12,5.54,3.75,6.57,7.52c1.19-5.02-1.85-7.68-4.67-10.21c3.07,2.25,6.1,4.9,8.05,8.17
					c-0.27-1.84-0.88-3.55-1.94-5.09C322.39,94.77,324.43,96.9,325.64,100.62z"/>
				<path class="st18" d="M283.18,111.3c1.25-0.48,2.65-0.67,3.94-0.31c-0.96-0.27-3.01,0.66-3.93,0.98
					c-0.97,0.34-2.63,1.54-3.56,1.43C280.39,112.48,282.03,111.74,283.18,111.3z"/>
				<path class="st18" d="M257.62,106.81c-1.02-0.34-2.16-0.33-3.18,0.03c1.03,0.3,2.12,0.38,3.18,0.24"/>
				<g>
					<path class="st13" d="M272.1,126.65c1.31-0.99,3.15-0.96,4.71-0.47c1.57,0.49,2.98,1.37,4.5,1.98c1.26,0.5,2.58,0.8,3.92,1
						c2.58,0.38,5.58,0.2,7.28-1.79c0.63-0.74,1.02-1.72,0.89-2.68c-0.13-0.96-0.87-1.86-1.83-2.02c-0.96-0.16-2.02,0.57-2.07,1.54
						c-0.05,0.97,0.92,1.65,1.77,1.19c0.62-0.32,0.56-0.68,0.6-1.03c0.28,0.75-0.35,1.64-1.14,1.75s-1.58-0.43-1.9-1.17
						c-0.32-0.73-0.21-1.6,0.12-2.32c0.29-0.64,0.76-1.2,1.38-1.52c0.74-0.37,1.62-0.36,2.41-0.13c2.72,0.82,4.07,4.26,3.15,6.94
						s-3.61,4.49-6.4,4.98s-5.67-0.14-8.34-1.11c-1.94-0.7-4.23-1.55-5.94-0.38c-0.58,0.39-1,0.98-1.55,1.4
						c-0.63,0.48-1.46,0.73-2.23,0.57C268.5,132.78,270.56,127.83,272.1,126.65z"/>
					<path class="st13" d="M270.65,126.73c-1.51-0.65-3.29-0.16-4.68,0.69c-1.4,0.86-2.55,2.06-3.89,3.02
						c-1.1,0.79-2.31,1.41-3.56,1.92c-2.41,1-5.37,1.55-7.49,0.04c-0.79-0.56-1.41-1.42-1.51-2.39c-0.1-0.97,0.39-2.01,1.28-2.4
						s2.1,0.06,2.38,0.99c0.28,0.93-0.56,2.12-1.44,1.7c-0.38-0.18-0.7-0.33-0.82-0.96c-0.09,0.79,0.74,1.5,1.53,1.42
						s1.43-0.81,1.55-1.59c0.13-0.79-0.18-1.6-0.68-2.22c-0.44-0.55-1.03-0.98-1.71-1.13c-0.81-0.18-1.66,0.04-2.37,0.47
						c-2.43,1.46-2.91,5.12-1.36,7.5c1.55,2.38,4.59,3.47,7.42,3.27c2.83-0.2,5.46-1.52,7.82-3.1c1.71-1.16,3.73-2.54,5.67-1.82
						c0.65,0.24,1.2,0.7,1.85,0.98c0.73,0.31,1.59,0.35,2.3,0.01C275.63,131.79,272.42,127.49,270.65,126.73z"/>
				</g>
				
					<linearGradient id="SVGID_4_" gradientUnits="userSpaceOnUse" x1="-1135.7542" y1="385.8223" x2="-1127.0286" y2="379.4512" gradientTransform="matrix(-1 0 0 -1 -862.9492 502)">
					<stop  offset="0" style="stop-color:#FFC0AA"/>
					<stop  offset="1" style="stop-color:#FFA181"/>
				</linearGradient>
				<path class="st19" d="M270.39,106.62c0,0-5.53,20.74-6.91,23.5s7.83,1.36,12.44-6.94"/>
				
					<linearGradient id="SVGID_5_" gradientUnits="userSpaceOnUse" x1="-1138.5051" y1="277.36" x2="-1169.1532" y2="301.3037" gradientTransform="matrix(-1 0 0 -1 -862.9492 502)">
					<stop  offset="0" style="stop-color:#FFFFEA"/>
					<stop  offset="0.9974" style="stop-color:#FFFFFF"/>
				</linearGradient>
				<polygon class="st20" points="286.79,182.97 323.02,174.91 308.64,263.49 271.83,263.49 258.6,173.19 				"/>
				<polygon class="st21" points="286.89,181.75 292.23,193.07 297.99,178.76 				"/>
				<polygon class="st21" points="286.89,181.75 280.7,190.72 280.41,179.09 				"/>
				<polygon class="st12" points="309.22,273.27 273.56,272.12 268.38,245.66 312.67,250.84 				"/>
				<path class="st8" d="M294.04,180.01l-2.18,63.56c-0.4,11.59,8.34,21.47,19.9,22.48l0,0l12.65-93.63L294.04,180.01z"/>
				<path class="st8" d="M281.01,179.38l-2.61,63.54c-0.48,11.59-9.93,20.78-21.53,20.92l0,0l-5.57-94.32L281.01,179.38z"/>
				<g>
					
						<linearGradient id="SVGID_6_" gradientUnits="userSpaceOnUse" x1="154.8412" y1="686.6389" x2="169.9454" y2="686.6389" gradientTransform="matrix(0.885 0.4655 0.4655 -0.885 -206.6289 704.4259)">
						<stop  offset="7.772440e-03" style="stop-color:#FFAF0E"/>
						<stop  offset="1" style="stop-color:#FFAB23"/>
					</linearGradient>
					<path class="st22" d="M264.35,174.06c0,0-12.4-8.06-14.34-5.16C248.07,171.79,257.17,176.02,264.35,174.06z"/>
					
						<linearGradient id="SVGID_7_" gradientUnits="userSpaceOnUse" x1="154.8912" y1="685.4319" x2="168.0958" y2="685.4319" gradientTransform="matrix(0.885 0.4655 0.4655 -0.885 -206.6289 704.4259)">
						<stop  offset="7.772440e-03" style="stop-color:#FFAF0E"/>
						<stop  offset="1" style="stop-color:#FFAB23"/>
					</linearGradient>
					<path class="st23" d="M249.73,170.74c-0.18,0.28-0.32,0.65-0.18,0.95c0.14,0.3,0.7,0.35,0.77,0.02
						c-0.08,0.39-0.14,0.83,0.09,1.14c0.24,0.32,0.88,0.25,0.89-0.14c-0.22,0.34-0.14,0.86,0.2,1.09s0.88,0.07,1.01-0.32
						c-0.37,0.38-0.2,1.12,0.29,1.32c0.49,0.2,1.12-0.16,1.22-0.69c-0.14,0.48,0.09,1.07,0.56,1.25s1.08-0.17,1.11-0.67
						c-0.23,0.35,0.1,0.86,0.51,0.89c0.41,0.02,0.77-0.36,0.82-0.77c0.12,0.44,0.57,0.77,1.02,0.75c0.46-0.03,0.87-0.4,0.93-0.86
						c0.04,0.36,0.53,0.57,0.82,0.35c0.84,0.2,1.77-0.13,2.31-0.8c0.08-0.1,0.15-0.2,0.16-0.33c0.03-0.26-0.19-0.48-0.41-0.63
						c-2-1.38-4.68-1.02-7.06-1.53c-1.62-0.34-2.73-1.18-4.12-1.98c-0.46-0.26-0.82-0.34-1.17,0.12c-0.09,0.12-0.38,0.8-0.3,0.92
						C249.34,171.02,249.72,171.02,249.73,170.74z"/>
				</g>
				<g>
					
						<linearGradient id="SVGID_8_" gradientUnits="userSpaceOnUse" x1="-1118.7811" y1="14.8105" x2="-1103.6766" y2="14.8105" gradientTransform="matrix(-0.885 0.4655 -0.4655 -0.885 -656.1043 704.4259)">
						<stop  offset="7.772440e-03" style="stop-color:#FFAF0E"/>
						<stop  offset="1" style="stop-color:#FFAB23"/>
					</linearGradient>
					<path class="st24" d="M312.81,175.76c0,0,12.4-8.06,14.34-5.16C329.09,173.48,319.99,177.71,312.81,175.76z"/>
					
						<linearGradient id="SVGID_9_" gradientUnits="userSpaceOnUse" x1="-1118.7263" y1="13.6048" x2="-1105.5216" y2="13.6048" gradientTransform="matrix(-0.885 0.4655 -0.4655 -0.885 -656.1043 704.4259)">
						<stop  offset="7.772440e-03" style="stop-color:#FFAF0E"/>
						<stop  offset="1" style="stop-color:#FFAB23"/>
					</linearGradient>
					<path class="st25" d="M327.42,172.44c0.18,0.28,0.32,0.65,0.18,0.95s-0.7,0.35-0.77,0.02c0.08,0.39,0.14,0.83-0.09,1.14
						c-0.24,0.32-0.88,0.25-0.89-0.14c0.22,0.34,0.14,0.86-0.2,1.09c-0.34,0.23-0.88,0.07-1.01-0.32c0.37,0.38,0.2,1.12-0.29,1.32
						c-0.49,0.2-1.12-0.16-1.22-0.69c0.14,0.48-0.09,1.07-0.56,1.25s-1.08-0.17-1.11-0.67c0.23,0.35-0.1,0.86-0.51,0.89
						c-0.41,0.02-0.77-0.36-0.82-0.77c-0.12,0.44-0.57,0.77-1.02,0.75c-0.46-0.03-0.87-0.4-0.93-0.86
						c-0.04,0.36-0.53,0.57-0.82,0.35c-0.84,0.2-1.77-0.13-2.31-0.8c-0.08-0.1-0.15-0.2-0.16-0.33c-0.03-0.26,0.19-0.48,0.41-0.63
						c2-1.38,4.68-1.02,7.06-1.53c1.62-0.34,2.73-1.18,4.12-1.98c0.46-0.26,0.82-0.34,1.17,0.12c0.09,0.12,0.38,0.8,0.3,0.92
						C327.81,172.72,327.43,172.72,327.42,172.44z"/>
				</g>
				
					<linearGradient id="SVGID_10_" gradientUnits="userSpaceOnUse" x1="215.9554" y1="201.0622" x2="215.5612" y2="202.074" gradientTransform="matrix(0.9906 -0.1368 -0.1368 -0.9906 124.2294 480.4649)">
					<stop  offset="0" style="stop-color:#FFCDB7"/>
					<stop  offset="1" style="stop-color:#FFB7A1"/>
				</linearGradient>
				<path class="st26" d="M316.09,249.52c0,0-4.75-0.53-4.63,0.96c0.06,0.79,2.23,0.73,1.93,1.75c-0.48,1.64-3.12,1.31-4.14,0.9
					c-1.99-0.8-4.58,1.61-2.39,3.42c3.49,2.89,9.83,1.3,11.28-2.85L316.09,249.52z"/>
			</g>
			<polygon class="st10" points="185.59,193.4 178.08,198.52 188.71,209.27 199.27,198.87 			"/>
			<g>
				<path class="st27" d="M138.76,186.06c1.59,5.92,3.42,49.48,3.43,49.87c0,0.01,0,0,0,0c0.13,0.12,6.54,5.74,20.13,7.55
					c13.73,1.83,20.82-8.69,20.82-8.69c-0.69-10.29-2.75-45.52-2.75-45.52L138.76,186.06z"/>
				<path class="st4" d="M180.61,195.65c0,0-5.89,3.64-18.9,4.16c-13,0.52-21.67-3.47-21.67-3.47l0.69,14.22
					c0,0,9.02,5.89,22.54,4.85s18.38-5.2,18.38-5.2L180.61,195.65z"/>
				<path class="st28" d="M140.04,196.34c0,0,7.8,7.63,16.3,8.5s8.5,2.77,4.85,3.64c-3.64,0.87-12.14-1.73-10.92-0.69
					c1.21,1.04,7.11,3.99,16.64,3.29c9.54-0.69,14.56-5.55,14.56-5.55l0.17,4.68c0,0-7.8,5.37-21.67,5.03
					c-13.87-0.35-19.24-4.68-19.24-4.68L140.04,196.34z"/>
				<polygon class="st3" points="170.93,192.58 168.67,243.56 162.33,243.48 156.67,192.58 				"/>
				<path class="st8" d="M186.15,184.68c0.68,0.05,1.02,0.85,0.59,1.37c-2.06,2.47-8.32,7.68-24.41,7.33
					c-21.05-0.46-27.91-4.37-28.25-8.59C133.76,180.98,177.56,184.04,186.15,184.68z"/>
				<path class="st12" d="M187.6,184.79c0,3.24-11.98,5.86-26.77,5.86s-26.77-2.62-26.77-5.86s11.98-5.86,26.77-5.86
					S187.6,181.55,187.6,184.79z"/>
				
					<linearGradient id="SVGID_11_" gradientUnits="userSpaceOnUse" x1="-1021.3015" y1="303.2285" x2="-1024.7642" y2="318.6714" gradientTransform="matrix(-1 0 0 -1 -862.9492 502)">
					<stop  offset="0" style="stop-color:#757773"/>
					<stop  offset="1" style="stop-color:#FFFFFF"/>
				</linearGradient>
				<path class="st29" d="M158.53,172.2c0,0,0.45,1.49,0.51,3.36c0.07,2.29-0.46,5.13-3.17,6.45c-4.9,2.38-11.04,8.1-8.54,8.54
					c22.26,3.92,26.46,0,26.46,0c-3.36-6.3-10.22-6.72-11.34-11.76s0.84-6.16,0.84-6.16L158.53,172.2z"/>
				<path class="st30" d="M157.57,191.95c3.86-0.47,9.61-1.54,9.86-3.68c0.39-3.25-6.11-5.07-6.95-8.57
					c-0.3-1.28-0.9-2.05-1.53-2.52c0.06-0.55,0.09-1.1,0.07-1.61c-0.05-1.86-0.51-3.36-0.51-3.36l4.76,0.42c0,0-1.96,1.12-0.84,6.16
					c1.12,5.04,7.98,5.46,11.34,11.76C173.79,190.54,170.93,193.18,157.57,191.95z"/>
				<g>
					
						<linearGradient id="SVGID_12_" gradientUnits="userSpaceOnUse" x1="-1019.6052" y1="339.0337" x2="-1034.7117" y2="367.3064" gradientTransform="matrix(-1 0 0 -1 -862.9492 502)">
						<stop  offset="0" style="stop-color:#757773"/>
						<stop  offset="1" style="stop-color:#FFFFFF"/>
					</linearGradient>
					<path class="st31" d="M165.9,144.84c0,0,8.36-37.38,17.85-33.71c9.53,3.68-15.34,35.49-15.34,35.49L165.9,144.84z"/>
					
						<linearGradient id="SVGID_13_" gradientUnits="userSpaceOnUse" x1="-1043.2437" y1="384.9721" x2="-1030.7092" y2="355.7481" gradientTransform="matrix(-1 0 0 -1 -862.9492 502)">
						<stop  offset="0" style="stop-color:#FFCDB7;stop-opacity:0"/>
						<stop  offset="1" style="stop-color:#FFB7A1"/>
					</linearGradient>
					<path class="st32" d="M167.57,144.98c0,0,10.02-30.69,13.46-29.43s-12.73,30.06-12.73,30.06L167.57,144.98z"/>
					<g>
						<g>
							
								<linearGradient id="SVGID_14_" gradientUnits="userSpaceOnUse" x1="-1033.9684" y1="350.0332" x2="-1015.9886" y2="361.2706" gradientTransform="matrix(-1 0 0 -1 -862.9492 502)">
								<stop  offset="0" style="stop-color:#757773"/>
								<stop  offset="1" style="stop-color:#FFFFFF"/>
							</linearGradient>
							<path class="st33" d="M158.56,144.28c0,0-4.94-21.64-11.37-18.77c-6.44,2.86-10.11,21.7-4.15,21.61
								c4.49-0.07,5.42-11.03,5.42-11.03l7.37,12.29L158.56,144.28z"/>
							
								<linearGradient id="SVGID_15_" gradientUnits="userSpaceOnUse" x1="-1013.586" y1="366.5697" x2="-1020.5112" y2="356.5284" gradientTransform="matrix(-1 0 0 -1 -862.9492 502)">
								<stop  offset="0" style="stop-color:#FFCDB7;stop-opacity:0"/>
								<stop  offset="1" style="stop-color:#FFB7A1"/>
							</linearGradient>
							<path class="st34" d="M156.44,144.99c0,0-5.72-12.79-6.16-12.42c-0.45,0.37-1.15,2.96-1.15,2.96l6.81,10.08L156.44,144.99z"
								/>
							
								<linearGradient id="SVGID_16_" gradientUnits="userSpaceOnUse" x1="-1024.7212" y1="319.0174" x2="-1024.7212" y2="339.9415" gradientTransform="matrix(-1 0 0 -1 -862.9492 502)">
								<stop  offset="0" style="stop-color:#757773"/>
								<stop  offset="1" style="stop-color:#FFFFFF"/>
							</linearGradient>
							<path class="st35" d="M161.86,142.99c0.21,0,6.8-0.62,10.98,6.51c3.92,6.68,6.91,16.39,2.66,20.28s-21.83,5.12-27.7-1.17
								C141.93,162.31,151.15,142.97,161.86,142.99z"/>
							<path class="st36" d="M166.92,156.99c0,0-1.87,2.08-0.55,4.71c1.32,2.62,5.57,0.41,5.57,0.41s-2.01,0.65-2.56-1.03
								C168.82,159.4,166.92,156.99,166.92,156.99z"/>
							<path class="st36" d="M156.32,156.99c0,0,1.87,2.08,0.55,4.71c-1.32,2.62-5.57,0.41-5.57,0.41s2.01,0.65,2.56-1.03
								C154.41,159.4,156.32,156.99,156.32,156.99z"/>
							<g>
								<path class="st3" d="M161.29,162.55c0,0,0.22,3.92-0.48,3.77s-0.7-2.31-0.7-2.31l1.17-1.68L161.29,162.55L161.29,162.55z"/>
								<path class="st3" d="M161.29,162.55c0,0-0.22,3.92,0.48,3.77s0.7-2.31,0.7-2.31l-1.17-1.68L161.29,162.55L161.29,162.55z"/>
								<g>
									<g class="st37">
										<path class="st38" d="M154.1,164.44c0.33,0.15,0.66,0.32,0.99,0.46c0.35,0.09,0.68,0.26,1.05,0.29
											c0.71,0.17,1.45,0.09,2.12-0.13c1.37-0.48,2.35-1.71,2.94-2.99l0.11-0.25l0.07,0.27c0.16,0.61,0.53,1.18,1,1.63
											c0.47,0.45,1.05,0.77,1.67,0.98c0.62,0.23,1.28,0.29,1.93,0.36l0.99,0.01l0.99-0.08l-0.99,0.12l-1,0.04
											c-0.66-0.04-1.33-0.1-1.97-0.33c-1.27-0.39-2.43-1.35-2.81-2.69l0.18,0.02c-0.29,0.69-0.72,1.3-1.23,1.84
											s-1.14,0.97-1.84,1.21c-0.7,0.22-1.47,0.29-2.19,0.1c-0.37-0.04-0.7-0.23-1.05-0.34
											C154.74,164.8,154.42,164.61,154.1,164.44z"/>
									</g>
									
										<linearGradient id="SVGID_17_" gradientUnits="userSpaceOnUse" x1="-1024.6633" y1="338.1299" x2="-1024.2838" y2="340.5268" gradientTransform="matrix(-1 0 0 -1 -862.9492 502)">
										<stop  offset="0" style="stop-color:#FFCDB7"/>
										<stop  offset="1" style="stop-color:#FFB7A1"/>
									</linearGradient>
									<path class="st39" d="M161.15,160.38c0,0,1.9-0.54,1.67,0.48c-0.23,1.02-0.95,1.56-1.82,1.49
										c-0.71-0.06-1.48-1.22-1.48-2.17C159.52,159.22,161.15,160.38,161.15,160.38z"/>
									<path class="st3" d="M160.94,160.38c0.07,0.07,0.13,0.16,0.06,0.37c-0.11,0.06-0.25,0.06-0.37,0.02
										c-0.12-0.03-0.23-0.1-0.34-0.16c-0.17-0.1-0.64-0.43-0.25-0.56C160.29,159.97,160.75,160.21,160.94,160.38z"/>
									<path class="st40" d="M162.23,161.83c-0.08,0.12-0.22,0.26-0.37,0.19C161.92,161.94,162.06,161.89,162.23,161.83z"/>
									<path class="st40" d="M160.3,161.83c0.08,0.12,0.22,0.26,0.37,0.19C160.61,161.94,160.47,161.89,160.3,161.83z"/>
								</g>
							</g>
						</g>
						<g>
							<path class="st36" d="M166.23,158.28c0,0,2.33-5.99,4.57-5.22c1.7,0.59,0.22,1.77,0.22,1.77s1.77-0.73,2.24,0.48
								c0.28,0.71-0.83,0.97-0.83,0.97s1.54,0.36,1.37,1.36C173.43,159.8,166.23,158.28,166.23,158.28z"/>
							<path class="st36" d="M156.92,158.28c0,0-2.15-5.76-4.57-5.04c-1.53,0.45-0.22,1.59-0.22,1.59s-2.04-0.52-2.24,0.48
								c-0.14,0.75,0.83,0.97,0.83,0.97s-1.54,0.29-1.37,1.36C149.74,160.04,156.92,158.28,156.92,158.28z"/>
							<path class="st3" d="M166.31,159.43c0.38,1.59,1.98,2.56,3.56,2.18c1.59-0.38,2.56-1.98,2.18-3.56
								c-0.38-1.59-1.98-2.56-3.56-2.18C166.91,156.25,165.93,157.84,166.31,159.43z"/>
							<path class="st13" d="M167.48,159.15c0.23,0.94,1.17,1.52,2.11,1.29c0.94-0.23,1.52-1.17,1.29-2.11s-1.17-1.52-2.11-1.29
								S167.26,158.21,167.48,159.15z"/>
							<path class="st3" d="M168.06,158.25c0.06,0.26,0.33,0.43,0.59,0.36c0.26-0.06,0.43-0.33,0.36-0.59
								c-0.06-0.26-0.33-0.43-0.59-0.36C168.15,157.72,167.99,157.98,168.06,158.25z"/>
						</g>
						<g>
							<path class="st3" d="M151.23,159.43c0.38,1.59,1.98,2.56,3.56,2.18c1.59-0.38,2.56-1.98,2.18-3.56
								c-0.38-1.59-1.98-2.56-3.56-2.18C151.82,156.25,150.85,157.84,151.23,159.43z"/>
							<path class="st13" d="M152.4,159.15c0.23,0.94,1.17,1.52,2.11,1.29s1.52-1.17,1.29-2.11s-1.17-1.52-2.11-1.29
								S152.17,158.21,152.4,159.15z"/>
							<path class="st3" d="M152.97,158.25c0.06,0.26,0.33,0.43,0.59,0.36c0.26-0.06,0.43-0.33,0.36-0.59
								c-0.06-0.26-0.33-0.43-0.59-0.36C153.07,157.72,152.91,157.98,152.97,158.25z"/>
						</g>
					</g>
				</g>
				<path class="st8" d="M160.84,190.65c11.79,0,21.77-1.67,25.34-3.99c-2.52,2.62-8.99,7.04-23.86,6.72
					c-21.05-0.46-27.91-4.37-28.25-8.59C134.07,188.03,146.06,190.65,160.84,190.65z"/>
				
					<linearGradient id="SVGID_18_" gradientUnits="userSpaceOnUse" x1="-1038.0479" y1="317.6927" x2="-1038.0479" y2="312.1495" gradientTransform="matrix(-1 0 0 -1 -862.9492 502)">
					<stop  offset="0" style="stop-color:#757773"/>
					<stop  offset="1" style="stop-color:#FFFFFF"/>
				</linearGradient>
				<path class="st41" d="M176.25,186.84c0,0,5.57,2.03,1.72,3.85s-7.3,0.2-7.09-2.23C171.08,186.03,176.25,186.84,176.25,186.84z"
					/>
				<path class="st42" d="M168.92,165.64c0,0.72,0.97,1.31,2.17,1.31s2.17-0.59,2.17-1.31s-0.97-1.31-2.17-1.31
					C169.89,164.32,168.92,164.91,168.92,165.64z"/>
				<path class="st42" d="M148.62,165.64c0,0.72,0.97,1.31,2.17,1.31s2.17-0.59,2.17-1.31s-0.97-1.31-2.17-1.31
					S148.62,164.91,148.62,165.64z"/>
				<path class="st43" d="M149.13,137.21l-0.67-1.12c0,0,0.6-4.14,0.67-5.91C149.13,130.18,150.28,132.57,149.13,137.21z"/>
			</g>
		</g>
		<path class="st10" d="M294.04,180.01l17.26,13.96c0,0-6.12-1.53-8.9,5.15l8.9,3.2l-19.06,42.57L294.04,180.01z"/>
		<path class="st10" d="M280.96,179.23l-17.4,12.87c0,0,6.23-0.99,8.42,5.91l-9.15,2.4l15.24,44.09L280.96,179.23z"/>
		<path class="st44" d="M286.25,182.97l-0.7,64.99C285.55,247.96,285.28,185.45,286.25,182.97z"/>
		<g>
			
				<linearGradient id="SVGID_19_" gradientUnits="userSpaceOnUse" x1="-1149.7393" y1="320.46" x2="-1141.0892" y2="320.46" gradientTransform="matrix(-1 0 0 -1 -862.9492 502)">
				<stop  offset="8.613800e-04" style="stop-color:#8E2C2C"/>
				<stop  offset="0.9905" style="stop-color:#C32C2C"/>
			</linearGradient>
			<polygon class="st45" points="286.79,182.97 280.49,175.14 282.2,182.82 278.14,187.94 			"/>
			
				<linearGradient id="SVGID_20_" gradientUnits="userSpaceOnUse" x1="-1157.8492" y1="320.46" x2="-1149.1992" y2="320.46" gradientTransform="matrix(-1 0 0 -1 -862.9492 502)">
				<stop  offset="8.613800e-04" style="stop-color:#8E2C2C"/>
				<stop  offset="0.9905" style="stop-color:#C32C2C"/>
			</linearGradient>
			<polygon class="st46" points="286.25,182.97 292.55,175.14 290.84,182.82 294.9,187.94 			"/>
		</g>
	</g>
</g>
</svg>
