<?xml version="1.0" encoding="utf-8"?>
<!-- Generator: Adobe Illustrator 23.0.6, SVG Export Plug-In . SVG Version: 6.00 Build 0)  -->
<svg version="1.1" id="Camada_1" xmlns="http://www.w3.org/2000/svg" xmlns:xlink="http://www.w3.org/1999/xlink" x="0px" y="0px"
	 viewBox="0 0 512 512" style="enable-background:new 0 0 512 512;" xml:space="preserve">
<style type="text/css">
	.st0{fill:#FFFFFF;}
</style>
<path class="st0" d="M75.9,239.5c-25.6,0-46.5,20.9-46.5,46.5c0,4.2,3.4,7.5,7.5,7.5h77.9c4.2,0,7.5-3.4,7.5-7.5
	C122.4,260.4,101.6,239.5,75.9,239.5z M45.4,278.5c3.4-13.7,15.8-23.9,30.5-23.9c14.7,0,27.2,10.2,30.5,23.9H45.4z"/>
<path class="st0" d="M236.4,293.6c4.2,0,7.5-3.4,7.5-7.5c0-25.6-20.9-46.5-46.5-46.5c-25.6,0-46.5,20.9-46.5,46.5
	c0,4.2,3.4,7.5,7.5,7.5H236.4z M197.4,254.6c14.7,0,27.1,10.2,30.5,23.9h-61.1C170.2,264.8,182.6,254.6,197.4,254.6z"/>
<path class="st0" d="M55.1,346.1c-5.3,7.5-6.5,17.2-3.4,25.8c12.7,34.9,46.2,58.3,83.4,58.3c37.2,0,70.7-23.4,83.4-58.3
	c3.1-8.6,1.9-18.2-3.4-25.8c-5.3-7.6-14-12.1-23.3-12.1H78.4C69.1,334,60.4,338.5,55.1,346.1z M202.6,354.7c2.5,3.6,3.1,7.9,1.6,12
	c-10.6,29-38.4,48.4-69.2,48.4s-58.7-19.5-69.2-48.4c-1.5-4-0.9-8.4,1.6-12c2.5-3.6,6.5-5.7,11-5.7h113.3
	C196.1,349,200.1,351.1,202.6,354.7z"/>
<path class="st0" d="M504.5,187.3c4.2,0,7.5-3.4,7.5-7.5V85.9c0-24.2-19.7-43.9-43.9-43.9H282.6c-24.2,0-43.9,19.7-43.9,43.9v100
	c-3-0.7-6.1-1-9.3-1H43.9C19.7,184.9,0,204.5,0,228.8v14.5c0,4.2,3.4,7.5,7.5,7.5s7.5-3.4,7.5-7.5v-14.5c0-15.9,12.9-28.8,28.8-28.8
	h185.5c3.3,0,6.5,0.6,9.6,1.6c1.5,22.1,8.4,42.9,19.2,60.9c0,0,0,0.1,0,0.1v72.4c0,67-54.5,121.6-121.6,121.6S15.1,402,15.1,334.9
	v-62.8c0-4.2-3.4-7.5-7.5-7.5S0,267.9,0,272.1v62.8c0,75.4,61.3,136.7,136.7,136.7s136.7-61.3,136.7-136.7v-52.1
	c25,28.1,61.5,45.9,102,45.9c33.8,0,66.3-12.6,91.5-35.4c25-22.6,40.8-53.4,44.4-86.6c0.4-4.1-2.5-7.8-6.7-8.3
	c-4.1-0.4-7.8,2.5-8.3,6.7c-3.2,29.6-17.2,56.9-39.5,77.1c-22.4,20.3-51.4,31.5-81.4,31.5c-67,0-121.6-54.5-121.6-121.6V85.9
	c0-15.9,12.9-28.8,28.8-28.8h185.5c15.9,0,28.8,12.9,28.8,28.8v93.8C496.9,183.9,500.3,187.3,504.5,187.3z"/>
<path class="st0" d="M362.7,153.9c0-25.6-20.9-46.5-46.5-46.5c-25.6,0-46.5,20.9-46.5,46.5c0,4.2,3.4,7.5,7.5,7.5h77.9
	C359.4,161.4,362.7,158,362.7,153.9z M285.7,146.3c3.4-13.7,15.8-23.9,30.5-23.9c14.7,0,27.2,10.2,30.5,23.9H285.7z"/>
<path class="st0" d="M484.2,153.9c0-25.6-20.9-46.5-46.5-46.5c-25.6,0-46.5,20.9-46.5,46.5c0,4.2,3.4,7.5,7.5,7.5h77.9
	C480.8,161.4,484.2,158,484.2,153.9z M407.2,146.3c3.4-13.7,15.8-23.9,30.5-23.9c14.7,0,27.1,10.2,30.5,23.9H407.2z"/>
<path class="st0" d="M320.3,274.1h113.3c9.3,0,18-4.5,23.3-12.1c5.3-7.5,6.5-17.2,3.4-25.8c-12.7-34.9-46.2-58.3-83.4-58.3
	c-37.1,0-70.7,23.4-83.4,58.3c-3.1,8.6-1.9,18.2,3.4,25.8C302.4,269.5,311.1,274.1,320.3,274.1z M307.8,241.3
	c10.6-29,38.4-48.4,69.2-48.4c30.8,0,58.7,19.5,69.2,48.4c1.5,4,0.9,8.4-1.6,12c-2.5,3.6-6.5,5.7-11,5.7H320.3
	c-4.4,0-8.4-2.1-11-5.7C306.9,249.7,306.3,245.4,307.8,241.3z"/>
</svg>
