<?xml version="1.0" encoding="utf-8"?>
<!-- Generator: Adobe Illustrator 23.0.6, SVG Export Plug-In . SVG Version: 6.00 Build 0)  -->
<svg version="1.1" id="Camada_1" xmlns="http://www.w3.org/2000/svg" xmlns:xlink="http://www.w3.org/1999/xlink" x="0px" y="0px"
	 viewBox="0 0 512 512" style="enable-background:new 0 0 512 512;" xml:space="preserve">
<style type="text/css">
	.st0{fill:#FFFFFF;}
</style>
<path class="st0" d="M276,392c-5.5,0-10,4.5-10,10s4.5,10,10,10s10-4.5,10-10S281.5,392,276,392z"/>
<path class="st0" d="M346,190c0-13.2-8.6-24.4-20.4-28.4c-4-42.4-37.4-76.3-79.6-81V30c0-5.5-4.5-10-10-10h-20
	c-27.6,0-50,22.4-50,50v10.6c-42.2,4.6-75.7,38.5-79.6,81C74.7,165.5,66,176.6,66,190c0,13,8.4,24.2,20,28.3v235.4
	c-11.4,4-20,15-20,28.3c0,16.5,13.5,30,30,30h220c16.6,0,30-13.4,30-30c0-13-8.4-24.2-20-28.3V218.3C337.4,214.3,346,203.3,346,190z
	 M216,40h10v40h-40V70C186,53.5,199.5,40,216,40z M176,100h60c35.2,0,64.4,26.1,69.3,60H106.7C111.5,126.3,140.5,100,176,100z
	 M96,180h220c5.5,0,10,4.5,10,10c0,5.5-4.5,10-10,10H96c-5.5,0-10-4.5-10-10C86,184.5,90.5,180,96,180z M106,280h80v112h-80V280z
	 M106,412h90c5.5,0,10-4.5,10-10V270c0-5.5-4.5-10-10-10h-90v-40h200v232H106V412z M316,492H96c-5.5,0-10-4.5-10-10
	c0-5.5,4.5-10,10-10h220c5.5,0,10,4.5,10,10C326,487.5,321.5,492,316,492z"/>
<path class="st0" d="M434.4,0.1l-120,20c-5.4,0.9-9.1,6.1-8.2,11.5c0.9,5.5,6.1,9.1,11.5,8.2l120-20c5.4-0.9,9.1-6.1,8.2-11.5
	C445,2.9,439.8-0.8,434.4,0.1z"/>
<path class="st0" d="M437.6,80.1l-120-20c-5.4-0.9-10.6,2.8-11.5,8.2c-0.9,5.4,2.8,10.6,8.2,11.5l120,20c5.4,0.9,10.6-2.8,11.5-8.2
	C446.8,86.2,443.1,81,437.6,80.1z"/>
<path class="st0" d="M276,260c-5.5,0-10,4.5-10,10v92c0,5.5,4.5,10,10,10s10-4.5,10-10v-92C286,264.5,281.5,260,276,260z"/>
</svg>
